# xmcd
#
# Track frame offsets:
#	150
#	9619
#	22850
#	35873
#	44422
#	63294
#	77059
#	87358
#	105497
#	116169
#	127734
#	138393
#	157487
#	169714
#	182897
#	195242
#	208029
#	221121
#	231233
#	243019
#
# Disc length: 3388 seconds
#
# Revision: 0
# Processed by: cddbd v1.5.1PL2 Copyright (c) Steve Scherf et al.
# Submitted via: SynApp - FreeCDDB Version: 2.0
#
DISCID=140d3a14
DTITLE=Legends 3 - Country Legends 3
DYEAR=2000
DGENRE=Country
TTITLE0=Dottie West - Rocky Top
TTITLE1=Kenny Rogers - Shine on Ruby Mountain
TTITLE2=Moe Bandy - Rodeo Romeo
TTITLE3=Jimmy Dean - Big Bad John
TTITLE4=Tanya Tucker - Delta Dawn
TTITLE5=Barbara Fairschild&Buddy Owens - Crazy Love
TTITLE6=Patsy Cline - Pick me up on your way
TTITLE7=Tom T Hall - I Like Beer
TTITLE8=Dolly Parton - Honky Tonk Angels
TTITLE9=Faron Young - Wine me Up
TTITLE10=Osmond Brothers - Gonna be a Heartache Tonight
TTITLE11=Bertie Higgins  - Key Largo
TTITLE12=Patty Loveless - Lonely Days, Lonely Night
TTITLE13=Charlie Rich - Behind Closed Doors
TTITLE14=Lyn Anderson - Rosen Garden
TTITLE15=Billie Jo Spaers - Dallas
TTITLE16=Dottie West - D.I.V.O.R.C.E
TTITLE17=Jan Howard - I Wish I Could Fall in Love Again
TTITLE18=Anne Murray - The Last Thing on my Mind
TTITLE19=Porter Wagoner - Ole Slewfoot
EXTD=
EXTT0=
EXTT1=
EXTT2=
EXTT3=
EXTT4=
EXTT5=
EXTT6=
EXTT7=
EXTT8=
EXTT9=
EXTT10=
EXTT11=
EXTT12=
EXTT13=
EXTT14=
EXTT15=
EXTT16=
EXTT17=
EXTT18=
EXTT19=
PLAYORDER=
